<svg width="25" height="24" viewBox="0 0 25 24" fill="none" xmlns="http://www.w3.org/2000/svg">
<g id="Logo icon / Twitter">
<path id="Vector" d="M23.5 5.13282C22.656 5.49955 21.763 5.74116 20.8492 5.85001C21.8095 5.28769 22.5317 4.39434 22.8803 3.33751C21.9724 3.86841 20.9807 4.24092 19.9478 4.43907C19.5129 3.98322 18.9897 3.62059 18.4103 3.3732C17.8308 3.12581 17.2071 2.99884 16.577 3.00001C14.0261 3.00001 11.9617 5.03438 11.9617 7.5422C11.9599 7.89102 11.9999 8.23881 12.0808 8.57813C10.2516 8.49238 8.4604 8.02575 6.82187 7.2081C5.18333 6.39044 3.73351 5.23977 2.56516 3.8297C2.15527 4.52069 1.9385 5.30909 1.9375 6.11251C1.9375 7.68751 2.75922 9.0797 4 9.89532C3.26487 9.87787 2.54481 9.68331 1.90094 9.32813V9.38438C1.90094 11.5875 3.49469 13.4203 5.60406 13.8375C5.2074 13.9432 4.79864 13.9968 4.38812 13.9969C4.09683 13.9974 3.8062 13.9691 3.52047 13.9125C4.10687 15.7172 5.81359 17.0297 7.83531 17.0672C6.19252 18.3333 4.1756 19.0175 2.10156 19.0125C1.73341 19.012 1.36561 18.99 1 18.9469C3.10993 20.2942 5.56255 21.0068 8.06594 21C16.5672 21 21.2116 14.0766 21.2116 8.07188C21.2116 7.87501 21.2064 7.67813 21.197 7.48595C22.0985 6.84472 22.8783 6.04787 23.5 5.13282Z" fill="black"/>
</g>
</svg>
